# xmcd
#
# Track frame offsets:
#	150
#	17978
#	33742
#	50306
#	68138
#	86566
#	101811
#	123009
#	143127
#
# Disc length: 2213 seconds
#
# Revision: 2
# Processed by: cddbd v1.5.2PL0 Copyright (c) Steve Scherf et al.
# Submitted via: audiograbber 1.83.01
#
DISCID=7708a309
DTITLE=Susperia - Attitude
DYEAR=2009
DGENRE=Metal
TTITLE0=The Urge
TTITLE1=Live My Dreams
TTITLE2=Attitude
TTITLE3=Elegy and Suffering
TTITLE4=Sick Bastard
TTITLE5=Another Turn
TTITLE6=Mr. Stranger
TTITLE7=Character Flaw
TTITLE8=The One After All
EXTD=
EXTT0=
EXTT1=
EXTT2=
EXTT3=
EXTT4=
EXTT5=
EXTT6=
EXTT7=
EXTT8=
PLAYORDER=
